<svg width="13" height="12" viewBox="0 0 13 12" fill="none" xmlns="http://www.w3.org/2000/svg">
<path fill-rule="evenodd" clip-rule="evenodd" d="M6.31919 4.6942L7.00396 3.25148C7.174 2.89423 7.46889 2.38052 7.88634 1.96521C8.29689 1.55634 8.78864 1.27812 9.38302 1.27812C10.6668 1.27812 11.6809 2.34746 11.6809 3.63293C11.6809 4.60953 11.2566 5.29903 10.2501 6.35063C9.99196 6.61998 9.69783 6.91111 9.3723 7.23207C8.52362 8.07077 7.46813 9.1143 6.31919 10.5094C5.17025 9.1143 4.11476 8.07077 3.26608 7.23207C2.94055 6.91111 2.64566 6.61917 2.38829 6.35063C1.38183 5.29903 0.957486 4.60953 0.957486 3.63293C0.957486 2.34746 1.97161 1.27812 3.25536 1.27812C3.84974 1.27812 4.34149 1.55634 4.75204 1.96521C5.16949 2.38052 5.46438 2.89423 5.63442 3.25148L6.31919 4.6942ZM6.61945 11.3812C6.58256 11.4272 6.53658 11.4642 6.48472 11.4895C6.43286 11.5149 6.37637 11.528 6.31919 11.528C6.26201 11.528 6.20552 11.5149 6.15366 11.4895C6.1018 11.4642 6.05582 11.4272 6.01893 11.3812C4.79264 9.84736 3.68276 8.7506 2.76898 7.84819C1.18727 6.2845 0.191528 5.30145 0.191528 3.63293C0.191528 1.88698 1.56259 0.47168 3.25536 0.47168C4.48089 0.47168 5.338 1.31844 5.86268 2.09101C6.06183 2.38536 6.21349 2.66842 6.31919 2.891C6.4517 2.61243 6.60431 2.34499 6.7757 2.09101C7.30038 1.31764 8.15749 0.47168 9.38302 0.47168C11.0758 0.47168 12.4469 1.88698 12.4469 3.63293C12.4469 5.30145 11.4511 6.2845 9.8694 7.84819C8.95562 8.7514 7.84574 9.84816 6.61945 11.3804V11.3812Z" fill="#192144"/>
</svg>
