<?xml version="1.0" encoding="UTF-8"?><!DOCTYPE svg PUBLIC "-//W3C//DTD SVG 1.1//EN" "http://www.w3.org/Graphics/SVG/1.1/DTD/svg11.dtd"><svg xmlns="http://www.w3.org/2000/svg" xmlns:xlink="http://www.w3.org/1999/xlink"><defs>
<clipPath id="clip0">
<rect width="17.0398" height="19.2" fill="white" transform="translate(0.0795898 0.919922)"/>
</clipPath>

<clipPath id="clip0">
<rect width="20.8265" height="21.12" fill="white" transform="translate(0 0.959961)"/>
</clipPath>

<clipPath id="clip0">
<rect width="12.2553" height="12.2849" fill="white" transform="translate(0.191528 0.706238)"/>
</clipPath>

<clipPath id="clip0">
<rect width="27" height="33.3033" fill="white" transform="translate(0 0.0859375)"/>
</clipPath>
</defs><symbol id="arrow-back" viewBox="0 0 32 16">
<path fill-rule="evenodd" clip-rule="evenodd" d="M4 16H28C30.2091 16 32 14.2091 32 12V7C32 4.79086 30.2091 3 28 3H4V5H28C29.1046 5 30 5.89543 30 7V12C30 13.1046 29.1046 14 28 14H4V16Z" fill="white"/>
<path d="M0 4L9 0.535898V7.4641L0 4Z" fill="white"/>
</symbol><symbol id="arrow-down-big" viewBox="0 0 8 11">
<path d="M3.64645 10.3536C3.84171 10.5488 4.15829 10.5488 4.35355 10.3536L7.53553 7.17157C7.7308 6.97631 7.7308 6.65973 7.53553 6.46447C7.34027 6.2692 7.02369 6.2692 6.82843 6.46447L4 9.29289L1.17157 6.46447C0.976311 6.2692 0.659728 6.2692 0.464466 6.46447C0.269204 6.65973 0.269204 6.97631 0.464466 7.17157L3.64645 10.3536ZM3.5 0L3.5 10H4.5L4.5 0L3.5 0Z" fill="#CBCED9"/>
</symbol><symbol id="arrow-down" viewBox="0 0 12 9">
<path d="M0.63847 1.09805C0.56899 1.17667 0.513866 1.27006 0.476254 1.37289C0.438641 1.47571 0.419281 1.58595 0.419281 1.69727C0.419281 1.8086 0.438641 1.91883 0.476254 2.02165C0.513866 2.12448 0.56899 2.21787 0.63847 2.29649L5.59841 7.92308C5.65363 7.98585 5.71922 8.03565 5.79142 8.06963C5.86363 8.1036 5.94103 8.12109 6.0192 8.12109C6.09737 8.12109 6.17478 8.1036 6.24698 8.06963C6.31918 8.03565 6.38477 7.98585 6.43999 7.92308L11.3999 2.29649C11.6924 1.96472 11.6924 1.42982 11.3999 1.09805C11.1075 0.766276 10.8004 1.04112 10.5079 1.37289L7.9079 4.3364L5.99993 6.42412L1.19995 1.09079C1.19995 1.09079 0.924965 0.766276 0.63847 1.09805Z" fill="black"/>
</symbol><symbol id="arrow-left" viewBox="0 0 9 19">
<path d="M8.8116 0.400608C8.71296 0.288944 8.59577 0.200351 8.46676 0.139903C8.33775 0.0794548 8.19945 0.0483398 8.05977 0.0483398C7.92009 0.0483398 7.78179 0.0794548 7.65278 0.139903C7.52377 0.200351 7.40659 0.288944 7.30795 0.400608L0.248437 8.37194C0.169684 8.46069 0.107204 8.5661 0.0645734 8.68214C0.0219433 8.79818 0 8.92258 0 9.04821C0 9.17384 0.0219433 9.29824 0.0645734 9.41428C0.107204 9.53033 0.169684 9.63574 0.248437 9.72448L7.30795 17.6958C7.72421 18.1658 8.39533 18.1658 8.8116 17.6958C9.22786 17.2258 8.88303 16.7322 8.46676 16.2622L4.74854 12.0836L2.12914 9.01725L8.8207 1.30298C8.8207 1.30298 9.22786 0.861046 8.8116 0.400608Z" fill="black"/>
</symbol><symbol id="arrow-right" viewBox="0 0 10 19">
<path d="M1.06949 18.3693C1.16815 18.481 1.28536 18.5695 1.41439 18.63C1.54343 18.6904 1.68176 18.7216 1.82146 18.7216C1.96117 18.7216 2.0995 18.6904 2.22853 18.63C2.35757 18.5695 2.47477 18.481 2.57344 18.3693L9.63433 10.398C9.7131 10.3092 9.77559 10.2038 9.81823 10.0878C9.86086 9.97171 9.88281 9.84732 9.88281 9.72169C9.88281 9.59605 9.86086 9.47166 9.81823 9.35561C9.77559 9.23957 9.7131 9.13416 9.63433 9.04542L2.57344 1.07408C2.15709 0.60405 1.48584 0.60405 1.06949 1.07408C0.653145 1.54411 1.32374 2.3591 1.74009 2.82913L7.82453 9.72169L1.41439 16.972C1.00654 17.4324 0.653145 17.9089 1.06949 18.3693Z" fill="black"/>
</symbol><symbol id="htmlacademy" viewBox="0 0 60 60"><path fill="#2E368F" d="M30.2 5h-.2l-19.7 2.1v36.2l19.7 11.7 19.7-11.7v-36.2l-19.5-2.1zm17 36.8l-17.2 10.2-17.2-10.2v-14.8l17.1 10.2v1.8l-11.7-7v1.8l11.8 7.1v1.9l-11.8-7v1.8l11.8 7 11.9-7.1v-7.6l5.3-3.2v15.1zm-.1-17l-4.7 2.8-2.2 1.3-10.3-6.1v1.8l8.8 5.3h-.1l-.2.1-1.3.7-7.3-4.3v1.8l5.8 3.4-1.4.9-4.3-2.6v1.8l2.9 1.7-2.9 1.7-17-10.1 17-10.2 17.2 10zm.1-1.8l-17.3-10.2-17.1 10.2v-13.6l17.2-1.8 17.2 1.8v13.6z"/></symbol><symbol id="icon-bicycle" viewBox="0 0 25 24">
<path d="M18.3075 21C17.4664 21 16.6442 20.7471 15.9449 20.2732C15.2456 19.7994 14.7005 19.1258 14.3786 18.3378C14.0568 17.5498 13.9726 16.6827 14.1366 15.8462C14.3007 15.0096 14.7057 14.2412 15.3005 13.6381C15.8952 13.035 16.6529 12.6243 17.4779 12.4579C18.3028 12.2915 19.1578 12.3769 19.9349 12.7033C20.7119 13.0297 21.3761 13.5824 21.8434 14.2916C22.3106 15.0008 22.5601 15.8346 22.5601 16.6875C22.5588 17.8309 22.1104 18.927 21.3132 19.7355C20.5159 20.544 19.435 20.9988 18.3075 21ZM18.3075 13.875C17.759 13.875 17.2228 14.04 16.7667 14.349C16.3106 14.658 15.9551 15.0973 15.7452 15.6112C15.5353 16.1251 15.4804 16.6906 15.5874 17.2362C15.6944 17.7818 15.9585 18.2829 16.3464 18.6762C16.7343 19.0696 17.2284 19.3374 17.7664 19.446C18.3044 19.5545 18.8621 19.4988 19.3688 19.2859C19.8756 19.073 20.3088 18.7126 20.6135 18.25C20.9182 17.7875 21.0809 17.2438 21.0809 16.6875C21.08 15.9418 20.7876 15.227 20.2676 14.6997C19.7477 14.1725 19.0428 13.8759 18.3075 13.875Z" fill="#1D2E5B"/>
<path d="M6.10449 21C5.26342 21 4.44123 20.7471 3.7419 20.2732C3.04257 19.7994 2.4975 19.1258 2.17564 18.3378C1.85377 17.5498 1.76956 16.6827 1.93364 15.8462C2.09773 15.0096 2.50275 14.2412 3.09748 13.6381C3.69221 13.035 4.44994 12.6243 5.27486 12.4579C6.09978 12.2915 6.95482 12.3769 7.73188 12.7033C8.50893 13.0297 9.17309 13.5824 9.64037 14.2916C10.1076 15.0008 10.3571 15.8346 10.3571 16.6875C10.3558 17.8309 9.9074 18.927 9.11016 19.7355C8.31291 20.544 7.23197 20.9988 6.10449 21ZM6.10449 13.875C5.55596 13.875 5.01975 14.04 4.56367 14.349C4.10758 14.658 3.75211 15.0973 3.5422 15.6112C3.33228 16.1251 3.27736 16.6906 3.38437 17.2362C3.49139 17.7818 3.75553 18.2829 4.1434 18.6762C4.53126 19.0696 5.02544 19.3374 5.56343 19.446C6.10142 19.5545 6.65906 19.4988 7.16583 19.2859C7.67261 19.073 8.10575 18.7126 8.4105 18.25C8.71525 17.7875 8.8779 17.2438 8.8779 16.6875C8.87705 15.9418 8.58458 15.227 8.06465 14.6997C7.54472 14.1725 6.83979 13.8759 6.10449 13.875Z" fill="#1D2E5B"/>
<path d="M15.1644 6.00005C15.3592 6.00073 15.5522 5.96225 15.7323 5.88681C15.9123 5.81138 16.0759 5.7005 16.2134 5.56058C16.351 5.42065 16.4598 5.25447 16.5336 5.07163C16.6074 4.88879 16.6448 4.69293 16.6435 4.49536C16.6457 4.29878 16.6092 4.10374 16.5361 3.92164C16.4631 3.73954 16.3549 3.57403 16.2181 3.4348C16.0812 3.29558 15.9183 3.18542 15.739 3.11077C15.5597 3.03612 15.3675 2.99848 15.1736 3.00005C14.9794 2.99943 14.7869 3.03762 14.6072 3.11243C14.4275 3.18725 14.2641 3.29722 14.1263 3.43607C13.9885 3.57493 13.8791 3.73994 13.8042 3.92169C13.7293 4.10344 13.6904 4.29838 13.6898 4.49536C13.6892 4.69234 13.7269 4.88752 13.8007 5.06974C13.8744 5.25197 13.9829 5.41767 14.1198 5.55739C14.2567 5.69712 14.4194 5.80812 14.5987 5.88407C14.7779 5.96002 14.9701 5.99943 15.1644 6.00005Z" fill="#1D2E5B"/>
<path d="M17.3622 9.00003H15.3395C15.3063 9.00004 15.2737 8.99099 15.2452 8.97384C15.2167 8.95668 15.1932 8.93205 15.1773 8.90253L13.7101 6.17581C13.6068 5.97318 13.4578 5.79807 13.2753 5.66467C13.0928 5.53127 12.8818 5.44333 12.6596 5.40795C12.4373 5.37258 12.21 5.39077 11.996 5.46106C11.7819 5.53135 11.5872 5.65175 11.4276 5.81253L8.19843 9.11253C7.92715 9.39333 7.77316 9.76945 7.76855 10.1625C7.76855 10.9782 8.35097 11.2688 8.62369 11.4328C9.94106 12.2025 10.8688 12.7655 11.3777 13.0782C11.4047 13.0949 11.4271 13.1183 11.4427 13.1463C11.4582 13.1743 11.4664 13.2059 11.4664 13.238V16.478C11.4664 16.8816 11.7724 17.228 12.1704 17.2482C12.2703 17.253 12.3702 17.2373 12.464 17.2019C12.5577 17.1666 12.6434 17.1123 12.7159 17.0423C12.7883 16.9724 12.8461 16.8883 12.8855 16.7951C12.925 16.7018 12.9455 16.6015 12.9456 16.5V12.4688C12.9457 12.3497 12.9178 12.2324 12.8642 12.1264C12.8107 12.0204 12.7331 11.9289 12.6377 11.8594L10.9275 10.6121C10.906 10.5965 10.8881 10.5764 10.8749 10.5532C10.8617 10.53 10.8536 10.5043 10.851 10.4776C10.8485 10.451 10.8516 10.4241 10.8602 10.3988C10.8687 10.3734 10.8825 10.3503 10.9007 10.3308L12.842 8.23128C12.862 8.20968 12.8866 8.19316 12.914 8.18307C12.9414 8.17297 12.9708 8.1696 12.9997 8.17321C13.0287 8.17682 13.0563 8.18731 13.0805 8.20384C13.1047 8.22037 13.1247 8.24246 13.1388 8.26831L14.1474 10.1143C14.2115 10.2313 14.3053 10.3288 14.4191 10.3966C14.5329 10.4644 14.6625 10.5001 14.7945 10.5H17.383C17.4832 10.5002 17.5824 10.4796 17.6745 10.4397C17.7667 10.3998 17.8498 10.3413 17.919 10.2678C17.9882 10.1942 18.0419 10.1073 18.0769 10.012C18.1119 9.91685 18.1274 9.81542 18.1226 9.71394C18.1032 9.31035 17.7602 9.00003 17.3622 9.00003Z" fill="#1D2E5B"/>
</symbol><symbol id="icon-bus" viewBox="0 0 18 21">
<g clip-path="url(#clip0)">
<path d="M4.34046 13.9485C4.34046 13.5699 4.20185 13.2467 3.92462 12.9788C3.64739 12.711 3.31288 12.5771 2.92106 12.5771C2.52925 12.5771 2.19473 12.711 1.91751 12.9788C1.64028 13.2467 1.50167 13.5699 1.50167 13.9485C1.50167 14.3271 1.64028 14.6503 1.91751 14.9181C2.19473 15.186 2.52925 15.3199 2.92106 15.3199C3.31288 15.3199 3.64739 15.186 3.92462 14.9181C4.20185 14.6503 4.34046 14.3271 4.34046 13.9485ZM15.6956 13.9485C15.6956 13.5699 15.557 13.2467 15.2798 12.9788C15.0025 12.711 14.668 12.5771 14.2762 12.5771C13.8844 12.5771 13.5499 12.711 13.2727 12.9788C12.9954 13.2467 12.8568 13.5699 12.8568 13.9485C12.8568 14.3271 12.9954 14.6503 13.2727 14.9181C13.5499 15.186 13.8844 15.3199 14.2762 15.3199C14.668 15.3199 15.0025 15.186 15.2798 14.9181C15.557 14.6503 15.6956 14.3271 15.6956 13.9485ZM15.1855 9.70563L14.3871 5.59135C14.3501 5.42706 14.267 5.29313 14.1376 5.18956C14.0082 5.08599 13.8585 5.0342 13.6885 5.0342H3.50878C3.33875 5.0342 3.18905 5.08599 3.05968 5.18956C2.9303 5.29313 2.84714 5.42706 2.81017 5.59135L2.01176 9.70563C1.9748 9.91992 2.02655 10.1092 2.16701 10.2735C2.30747 10.4378 2.48859 10.5199 2.71037 10.5199H14.4869C14.7087 10.5199 14.8898 10.4378 15.0303 10.2735C15.1707 10.1092 15.2225 9.91992 15.1855 9.70563ZM12.6794 3.14849C12.6794 3.00563 12.6276 2.88421 12.5242 2.78421C12.4207 2.68421 12.295 2.63421 12.1471 2.63421H5.05015C4.9023 2.63421 4.77663 2.68421 4.67313 2.78421C4.56963 2.88421 4.51788 3.00563 4.51788 3.14849C4.51788 3.29135 4.56963 3.41278 4.67313 3.51278C4.77663 3.61278 4.9023 3.66278 5.05015 3.66278H12.1471C12.295 3.66278 12.4207 3.61278 12.5242 3.51278C12.6276 3.41278 12.6794 3.29135 12.6794 3.14849ZM17.115 10.9163V17.3771H15.6956V18.7485C15.6956 19.1271 15.557 19.4503 15.2798 19.7181C15.0025 19.986 14.668 20.1199 14.2762 20.1199C13.8844 20.1199 13.5499 19.986 13.2727 19.7181C12.9954 19.4503 12.8568 19.1271 12.8568 18.7485V17.3771H4.34046V18.7485C4.34046 19.1271 4.20185 19.4503 3.92462 19.7181C3.64739 19.986 3.31288 20.1199 2.92106 20.1199C2.52925 20.1199 2.19473 19.986 1.91751 19.7181C1.64028 19.4503 1.50167 19.1271 1.50167 18.7485V17.3771H0.0822754V10.9163C0.0822754 10.1163 0.174684 9.31992 0.359501 8.52706L1.50167 3.66278C1.5682 3.10563 1.9286 2.61635 2.58285 2.19492C3.2371 1.77349 4.08726 1.45564 5.13332 1.24135C6.17939 1.02706 7.33449 0.919922 8.59864 0.919922C9.86279 0.919922 11.0179 1.02706 12.064 1.24135C13.11 1.45564 13.9602 1.77349 14.6144 2.19492C15.2687 2.61635 15.6291 3.10563 15.6956 3.66278L16.86 8.52706C17.03 9.25563 17.115 10.0521 17.115 10.9163Z" fill="#1D2E5B"/>
</g>

</symbol><symbol id="icon-businessman" viewBox="0 0 28 28">
<path d="M23.3758 23.2418V19.8933C23.3758 18.9558 23.2418 18.0182 22.7061 17.0806C22.1703 16.143 21.5006 15.3394 20.5631 14.8036C19.6255 14.1339 17.6164 14 16.6788 14L14.5358 16.277L15.3394 18.0182V22.0364L14 23.5097L12.6606 22.0364V18.0182L13.5982 16.277L11.3212 14C10.2497 14 8.24063 14.1339 7.30306 14.8036C6.36548 15.3394 5.82972 16.143 5.29396 17.0806C4.75821 18.0182 4.62427 18.8218 4.62427 19.8933V23.2418C4.62427 23.2418 8.10669 24.7151 14 24.7151C19.8934 24.7151 23.3758 23.2418 23.3758 23.2418Z" fill="#132576"/>
<path d="M14 3.41895C11.4551 3.41895 9.98178 5.82985 10.3836 8.50864C10.7854 11.1874 12.1248 13.0626 14 13.0626C15.8751 13.0626 17.2145 11.1874 17.6163 8.50864C18.0181 5.69592 16.5448 3.41895 14 3.41895Z" fill="#132576"/>
</symbol><symbol id="icon-check-mark" viewBox="0 0 9 9">
<path d="M2.83484 8.46392L0.388824 5.80546V5.44435V4.72213C0.388824 4.75169 0.388824 4.69256 0.388824 4.72213C0.388824 4.56696 0.388875 4.36102 0.388875 4.36102V3.63879L2.82803 5.99046C2.91165 6.07814 3.04776 6.07712 3.13138 5.98944L8.33331 0.388794V1.88575V2.55546C8.33331 2.91657 8.33331 2.91657 8.33331 2.91657L3.86155 7.69823L3.86253 7.69925L3.13819 8.4629C3.05457 8.55058 2.91845 8.55058 2.83484 8.46392Z" fill="#161C35"/>
</symbol><symbol id="icon-close" viewBox="0 0 9 9">
<path d="M7.875 1.125L1.125 7.875" stroke="#AFB0B5" stroke-linecap="round" stroke-linejoin="round"/>
<path d="M1.125 1.125L7.875 7.875" stroke="#AFB0B5" stroke-linecap="round" stroke-linejoin="round"/>
</symbol><symbol id="icon-facebook" viewBox="0 0 11 21">
<path d="M7.48786 20.8125H2.12929V11.1375H0V6.3525H2.06643C1.90929 4.185 2.30214 2.6025 3.26071 1.5225C3.71777 1.04316 4.27461 0.66015 4.89562 0.397985C5.51662 0.13582 6.18812 0.000268301 6.86714 0L10.6229 0V4.6125H7.66857C7.49452 5.1766 7.42799 5.76595 7.47214 6.3525H10.615V11.1375H7.47214L7.48786 20.8125ZM3.31571 19.6875H6.28571V10.0125H9.42857V7.5H6.28571V6.93C6.28571 5.43 6.28571 4.0875 7.07143 3.585L7.22071 3.4875H9.42857V1.125H6.89857C6.38444 1.11866 5.87465 1.21553 5.40225 1.40933C4.92986 1.60314 4.50541 1.88955 4.15643 2.25C3.37071 3.1725 3.04857 4.7175 3.29214 6.855L3.37071 7.4775H1.17857V10.0125H3.31571V19.6875Z" fill="#192144"/>
</symbol><symbol id="icon-filter" viewBox="0 0 15 10">
<rect x="7.17395" width="7.82609" height="2" fill="#192144"/>
<rect x="7.17383" y="8" width="7.82609" height="2" fill="#192144"/>
<rect y="4" width="7.82609" height="2" fill="#192144"/>
<rect x="3.91309" width="1.95652" height="2" fill="#192144"/>
<rect x="3.91309" y="8" width="1.95652" height="2" fill="#192144"/>
<rect x="9.13037" y="4" width="1.95652" height="2" fill="#192144"/>
<rect width="2.6087" height="2" fill="#192144"/>
<rect y="8" width="2.6087" height="2" fill="#192144"/>
<rect x="12.3914" y="4" width="2.6087" height="2" fill="#192144"/>
</symbol><symbol id="icon-instagram" viewBox="0 0 18 18">
<path d="M12.9601 1.80061C13.8188 1.80251 14.6418 2.14448 15.249 2.75169C15.8562 3.35889 16.1982 4.18189 16.2001 5.04061V12.9606C16.1982 13.8193 15.8562 14.6423 15.249 15.2495C14.6418 15.8567 13.8188 16.1987 12.9601 16.2006H5.04009C4.18262 16.1968 3.36147 15.854 2.75581 15.247C2.15016 14.64 1.80919 13.8181 1.80729 12.9606V5.04061C1.80919 4.18314 2.15016 3.36122 2.75581 2.75422C3.36147 2.14722 4.18262 1.80441 5.04009 1.80061H12.9601ZM12.9601 0.720612H5.04009C3.89436 0.720612 2.79555 1.17575 1.98539 1.98591C1.17523 2.79607 0.720093 3.89488 0.720093 5.04061L0.720093 12.9606C0.720093 14.1063 1.17523 15.2052 1.98539 16.0153C2.79555 16.8255 3.89436 17.2806 5.04009 17.2806H12.9601C14.1058 17.2806 15.2046 16.8255 16.0148 16.0153C16.8249 15.2052 17.2801 14.1063 17.2801 12.9606V5.04061C17.2801 3.89488 16.8249 2.79607 16.0148 1.98591C15.2046 1.17575 14.1058 0.720612 12.9601 0.720612V0.720612Z" fill="#192144"/>
<path d="M9.00703 5.81737C9.63787 5.81737 10.2545 6.00444 10.7791 6.35492C11.3036 6.7054 11.7124 7.20354 11.9538 7.78637C12.1953 8.36919 12.2584 9.01051 12.1353 9.62923C12.0123 10.248 11.7085 10.8163 11.2624 11.2624C10.8163 11.7084 10.248 12.0122 9.62929 12.1353C9.01057 12.2584 8.36924 12.1952 7.78642 11.9538C7.2036 11.7124 6.70545 11.3035 6.35497 10.779C6.00449 10.2545 5.81743 9.63782 5.81743 9.00697C5.81648 8.58784 5.89833 8.17265 6.05829 7.78524C6.21824 7.39784 6.45315 7.04584 6.74952 6.74947C7.04589 6.4531 7.39789 6.21819 7.7853 6.05823C8.17271 5.89828 8.5879 5.81642 9.00703 5.81737V5.81737ZM9.00703 4.73737C8.16228 4.73595 7.33609 4.98514 6.63301 5.45343C5.92993 5.92171 5.38156 6.58803 5.0573 7.36807C4.73304 8.14811 4.64746 9.00681 4.81139 9.83551C4.97532 10.6642 5.38139 11.4256 5.97822 12.0235C6.57504 12.6213 7.3358 13.0287 8.16422 13.194C8.99264 13.3593 9.85148 13.2752 10.6321 12.9523C11.4127 12.6293 12.0799 12.0821 12.5494 11.3798C13.0188 10.6775 13.2694 9.85173 13.2694 9.00697C13.2704 8.44662 13.1608 7.89158 12.947 7.37361C12.7333 6.85564 12.4194 6.38491 12.0236 5.98835C11.6277 5.59178 11.1575 5.27717 10.6398 5.06252C10.1222 4.84786 9.56738 4.73737 9.00703 4.73737Z" fill="#192144"/>
<path d="M13.4282 5.55936C13.961 5.55936 14.393 5.12741 14.393 4.59456C14.393 4.06172 13.961 3.62976 13.4282 3.62976C12.8953 3.62976 12.4634 4.06172 12.4634 4.59456C12.4634 5.12741 12.8953 5.55936 13.4282 5.55936Z" fill="#192144"/>
</symbol><symbol id="icon-mail-btn" viewBox="0 0 16 14">
<path d="M1.25913 2.60026L7.25913 6.36066C7.46073 6.48666 7.72153 6.54639 7.98393 6.54639C8.24633 6.54639 8.50713 6.48666 8.70873 6.36066L14.7087 2.60026C15.0999 2.35479 15.4695 1.39999 14.7519 1.39999H1.21673C0.499128 1.39999 0.868728 2.35479 1.25913 2.60026ZM14.8903 4.65639L8.70873 8.41493C8.43673 8.58106 8.24633 8.60066 7.98393 8.60066C7.72153 8.60066 7.53113 8.58106 7.25913 8.41493C6.98713 8.24879 1.55273 4.92519 1.10873 4.65546C0.796728 4.46506 0.799928 4.68813 0.799928 4.85986V11.6667C0.799928 12.0587 1.25273 12.6 1.59993 12.6H14.3999C14.7471 12.6 15.1999 12.0587 15.1999 11.6667V4.86079C15.1999 4.68906 15.2031 4.46599 14.8903 4.65639Z" fill="#161C35"/>
</symbol><symbol id="icon-map-pin" viewBox="0 0 41 41">
<circle cx="20.5" cy="20.4998" r="19.7679" fill="white"/>
<circle cx="20.4999" cy="19.7676" r="8.78572" fill="#182044"/>
</symbol><symbol id="icon-phone-btn" viewBox="0 0 18 18">
<path d="M8.97418 7.42388C8.97418 7.61288 9.12781 7.76138 9.31556 7.76138C9.70474 7.76138 10.0188 8.07526 10.0188 8.45663C10.0188 8.64225 10.1724 8.79413 10.3602 8.79413C10.5479 8.79413 10.7016 8.64225 10.7016 8.45663C10.7016 7.70064 10.0802 7.08638 9.31556 7.08638C9.12781 7.08638 8.97418 7.23826 8.97418 7.42388ZM14.5318 8.79413C14.723 8.79413 14.8732 8.64225 14.8732 8.45663C14.8732 5.42589 12.3811 2.96214 9.31556 2.96214C9.12781 2.96214 8.97418 3.114 8.97418 3.29964C8.97418 3.48526 9.12781 3.63714 9.31556 3.63714C12.0056 3.63714 14.1905 5.80051 14.1905 8.45663C14.1905 8.64225 14.3441 8.79413 14.5318 8.79413Z" fill="#161C35"/>
<path d="M12.1046 8.45663C12.1046 8.64225 12.2582 8.79413 12.446 8.79413C12.6338 8.79413 12.7874 8.64225 12.7874 8.45663C12.7874 6.56326 11.2307 5.02426 9.31554 5.02426C9.12779 5.02426 8.97416 5.17614 8.97416 5.36176C8.97416 5.55076 9.12779 5.69926 9.31554 5.69926C10.8552 5.69926 12.1046 6.93788 12.1046 8.45663ZM9.31554 0.900002C9.12779 0.900002 8.97416 1.05188 8.97416 1.2375C8.97416 1.42314 9.12779 1.575 9.31554 1.575C13.1561 1.575 16.2797 4.66314 16.2797 8.45663C16.2797 8.64225 16.4299 8.79413 16.6211 8.79413C16.8088 8.79413 16.9624 8.64225 16.9624 8.45663C16.9624 4.28852 13.5316 0.900002 9.31554 0.900002ZM12.6508 12.0139L12.2036 12.2535C11.4492 12.6619 10.8621 13.7813 9.93104 12.9375L7.5 10.5L5.39993 8.45663C4.34484 7.1235 5.52624 6.80625 5.9393 6.05701L6.18168 5.61827C6.45478 5.11875 6.55377 4.55851 6.47185 3.99825C6.39333 3.43801 6.1373 2.92838 5.72764 2.52338C5.22924 2.03064 4.56696 1.76064 3.86031 1.76064C3.15365 1.76064 2.48796 2.03064 1.98953 2.52338L1.81545 2.69888C0.893721 3.61014 0.787894 5.1795 1.51503 7.1235C2.20119 8.97975 3.58379 10.9913 5.39993 12.7868C8.16851 15.5239 11.2512 17.1 13.4633 17.1C14.3372 17.1 15.078 16.8536 15.6037 16.3339L15.7813 16.1584C16.2763 15.669 16.5528 15.0143 16.5562 14.3089C16.5528 13.6204 16.2694 12.9454 15.7813 12.4628C14.9585 11.6494 13.6715 11.4671 12.6508 12.0139Z" fill="#161C35"/>
</symbol><symbol id="icon-plane" viewBox="0 0 21 23">
<g clip-path="url(#clip0)">
<path d="M16.7831 2.09314C16.0546 2.26635 15.3227 2.44038 15.0504 2.91723L12.9433 7.11585L1.62916 9.8059L1.17076 11.1474L9.82861 11.9662L8.35967 15.6009L5.07624 16.3816L4.25187 17.8101L6.62062 18.0673L6.89073 19.2357C7.01174 19.6498 7.43649 19.9263 7.79903 19.8401L8.89351 19.5799L10.1622 21.7433L10.9866 20.3148L10.1763 16.8098L12.5535 13.7795L17.0895 21.741L18.0042 20.7031L15.2128 8.62921L17.7762 4.73424C18.0519 4.25657 17.8721 3.47891 17.6914 2.69759C17.6019 2.31059 17.1457 2.00694 16.7831 2.09314Z" fill="#101D41"/>
</g>

</symbol><symbol id="icon-run" viewBox="0 0 21 24">
<path d="M14.9758 5.75992C15.9264 5.75992 16.697 4.90031 16.697 3.83992C16.697 2.77954 15.9264 1.91992 14.9758 1.91992C14.0252 1.91992 13.2546 2.77954 13.2546 3.83992C13.2546 4.90031 14.0252 5.75992 14.9758 5.75992Z" fill="#1D2E5B"/>
<path d="M13.9233 10.5302C14.1209 10.8586 14.4043 11.1113 14.735 11.2538C15.0657 11.3964 15.4277 11.4219 15.7719 11.327L18.6256 10.5312L18.21 8.66881L15.3562 9.46465L14.1695 7.48033C13.9159 7.05655 13.5224 6.76184 13.0748 6.66049L9.76493 5.92129C9.39465 5.83839 9.01021 5.89379 8.67097 6.07893C8.33173 6.26406 8.05657 6.56863 7.88797 6.94561L6.4611 10.129L8.00071 10.9882L9.42758 7.80385L11.1204 8.18209L6.74338 16.32H2.92749V18.24H6.74338C7.34407 18.24 7.90949 17.8829 8.2193 17.3078L9.86993 14.2397L14.3184 15.2323L15.8812 20.4634L17.5129 19.8557L15.9509 14.6256C15.8545 14.3045 15.684 14.0174 15.4564 13.7933C15.2289 13.5691 14.9524 13.4158 14.6548 13.3488L12.0395 12.7661L13.5645 9.93025L13.9233 10.5302Z" fill="#1D2E5B"/>
</symbol><symbol id="icon-telephone-yellow" viewBox="0 0 28 26">
  <path fill-rule="evenodd" clip-rule="evenodd" d="M14 1.79688C9.77425 1.79688 5.53833 2.51113 4.00137 3.93476C2.72618 5.11583 2.3011 7.20233 2.15781 8.52341C2.15781 8.52341 2.13806 8.65396 2.13806 8.71011C2.13806 9.22816 2.58278 9.64365 3.12651 9.64365C3.19076 9.64365 5.56809 9.46157 7.00137 9.34956C7.03586 9.34484 7.07062 9.34021 7.10511 9.33091C7.63894 9.31699 8.06902 8.90612 8.06902 8.39738L8.07381 6.55816C8.07381 5.98869 8.5633 5.53117 9.16633 5.53117H18.8336C19.4367 5.53117 19.9263 5.98863 19.9263 6.55816L19.9311 8.39738C19.9311 8.90612 20.3611 9.31699 20.8949 9.33091C20.9292 9.34026 20.9639 9.34484 20.9988 9.34956C22.4322 9.46151 24.8095 9.64365 24.8735 9.64365C25.417 9.64365 25.8621 9.22816 25.8621 8.71011C25.8621 8.65396 25.8423 8.52341 25.8423 8.52341C25.6989 7.20233 25.2743 5.11588 23.9991 3.93476C22.4616 2.51113 18.2257 1.79688 14 1.79688ZM14 13.9335C12.9077 13.9335 12.023 14.769 12.023 15.8006C12.023 16.8322 12.9077 17.6677 14 17.6677C15.0923 17.6677 15.9769 16.8322 15.9769 15.8006C15.9769 14.769 15.0923 13.9335 14 13.9335ZM12.5173 9.73228V8.56533C12.5173 7.92121 11.9636 7.39839 11.2817 7.39839C10.5997 7.39839 10.0461 7.92126 10.0461 8.56533V9.73228L3.37838 16.4588C2.91892 16.8837 2.63218 17.4763 2.63218 18.13V20.0018C2.63218 21.0334 3.51694 21.8689 4.60918 21.8689H5.10346V23.036C5.10346 23.6801 5.65714 24.2028 6.3391 24.2028C7.02106 24.2028 7.57469 23.6801 7.57469 23.036V21.8689H20.4253V23.036C20.4253 23.6801 20.9787 24.2028 21.661 24.2028C22.3429 24.2028 22.8965 23.6801 22.8965 23.036V21.8689H23.3907C24.483 21.8689 25.3677 21.0334 25.3677 20.0018V18.13C25.3677 17.4762 25.081 16.8836 24.6215 16.4588L17.954 9.73228V8.56533C17.954 7.92121 17.4003 7.39839 16.7184 7.39839C16.0364 7.39839 15.4828 7.92126 15.4828 8.56533V9.73228H12.5173ZM14 12.0663C16.1846 12.0663 17.954 13.7374 17.954 15.8006C17.954 17.8638 16.1846 19.5351 14 19.5351C11.8154 19.5351 10.046 17.8639 10.046 15.8006C10.046 13.7374 11.8154 12.0663 14 12.0663Z" fill="#FFD74B"/>
</symbol><symbol id="icon-telephone" viewBox="0 0 19 17">
  <path fill-rule="evenodd" clip-rule="evenodd" d="M9.49995 1.08615C6.7035 1.08615 3.90033 1.55882 2.88322 2.50093C2.03934 3.28252 1.75804 4.66329 1.66321 5.53753C1.66321 5.53753 1.65015 5.62393 1.65015 5.66109C1.65015 6.00391 1.94445 6.27887 2.30427 6.27887C2.34678 6.27887 3.92002 6.15837 4.86851 6.08425C4.89134 6.08112 4.91434 6.07806 4.93716 6.07191C5.29043 6.0627 5.57505 5.7908 5.57505 5.45413L5.57822 4.237C5.57822 3.86014 5.90214 3.55737 6.3012 3.55737H12.6987C13.0978 3.55737 13.4218 3.86011 13.4218 4.237L13.425 5.45413C13.425 5.7908 13.7095 6.0627 14.0628 6.07191C14.0854 6.0781 14.1085 6.08112 14.1315 6.08425C15.0801 6.15834 16.6533 6.27887 16.6957 6.27887C17.0553 6.27887 17.3499 6.00391 17.3499 5.66109C17.3499 5.62393 17.3368 5.53753 17.3368 5.53753C17.2419 4.66329 16.9609 3.28255 16.117 2.50093C15.0996 1.55882 12.2964 1.08615 9.49995 1.08615ZM9.49995 9.11773C8.7771 9.11773 8.19164 9.67064 8.19164 10.3533C8.19164 11.036 8.7771 11.5889 9.49995 11.5889C10.2228 11.5889 10.8082 11.036 10.8082 10.3533C10.8082 9.67064 10.2228 9.11773 9.49995 9.11773ZM8.51873 6.33752V5.56528C8.51873 5.13902 8.15236 4.79304 7.70106 4.79304C7.24977 4.79304 6.8834 5.13905 6.8834 5.56528V6.33752L2.47095 10.7889C2.16689 11.07 1.97713 11.4622 1.97713 11.8948V13.1335C1.97713 13.8162 2.56264 14.3691 3.28545 14.3691H3.61254V15.1414C3.61254 15.5677 3.97895 15.9136 4.43025 15.9136C4.88154 15.9136 5.24792 15.5677 5.24792 15.1414V14.3691H13.752V15.1414C13.752 15.5677 14.1182 15.9136 14.5697 15.9136C15.021 15.9136 15.3873 15.5677 15.3873 15.1414V14.3691H15.7144C16.4373 14.3691 17.0227 13.8162 17.0227 13.1335V11.8948C17.0227 11.4622 16.833 11.07 16.5289 10.7889L12.1166 6.33752V5.56528C12.1166 5.13902 11.7502 4.79304 11.2989 4.79304C10.8476 4.79304 10.4812 5.13905 10.4812 5.56528V6.33752H8.51873ZM9.49995 7.8821C10.9456 7.8821 12.1166 8.98799 12.1166 10.3533C12.1166 11.7187 10.9457 12.8247 9.49995 12.8247C8.05426 12.8247 6.88336 11.7187 6.88336 10.3533C6.88336 8.98795 8.05426 7.8821 9.49995 7.8821Z" fill="#FFD74B"/>
</symbol><symbol id="icon-triangle-down" viewBox="0 0 10 5">
<path d="M5 5L0.669872 0.5L9.33013 0.5L5 5Z" fill="#192144"/>
</symbol><symbol id="icon-triangle-left" viewBox="0 0 10 18">
<path d="M0 9L9.75 0.339745L9.75 17.6603L0 9Z" fill="#1D2E5B"/>
</symbol><symbol id="icon-triangle-right" viewBox="0 0 10 18">
<path d="M10 8.89478L0.25 17.555L0.25 0.234521L10 8.89478Z" fill="#1D2E5B"/>
</symbol><symbol id="icon-triangle-up" viewBox="0 0 10 5">
<path d="M5 0L9.33013 4.5H0.669873L5 0Z" fill="#192144"/>
</symbol><symbol id="icon-user-tablet" viewBox="0 0 24 24">
<path opacity="0.1" d="M7.5 6.73684C7.5 9.34842 9.519 11.4737 12 11.4737C14.481 11.4737 16.5 9.34842 16.5 6.73684C16.5 4.12526 14.481 2 12 2C9.519 2 7.5 4.12526 7.5 6.73684ZM20 22H21V20.9474C21 16.8853 17.859 13.5789 14 13.5789H10C6.14 13.5789 3 16.8853 3 20.9474V22H20Z" fill="#192144"/>
</symbol><symbol id="icon-user" viewBox="0 0 14 14">
<path opacity="0.1" d="M4.375 3.92991C4.375 5.45333 5.55275 6.69306 7 6.69306C8.44725 6.69306 9.625 5.45333 9.625 3.92991C9.625 2.40648 8.44725 1.16675 7 1.16675C5.55275 1.16675 4.375 2.40648 4.375 3.92991ZM11.6667 12.8334H12.25V12.2194C12.25 9.84982 10.4177 7.92113 8.16667 7.92113H5.83333C3.58167 7.92113 1.75 9.84982 1.75 12.2194V12.8334H11.6667Z" fill="#192144"/>
</symbol><symbol id="icon-vkontakte" viewBox="0 0 23 12">
<path d="M17.7664 11.8331C17.219 11.8207 16.6854 11.6573 16.2232 11.3606C15.7407 11.031 15.2975 10.6459 14.9026 10.2132C14.5761 9.88315 14.0345 9.32815 13.8268 9.32815C13.619 9.32815 13.4706 10.0181 13.478 10.5056C13.4812 10.8422 13.3564 11.167 13.1293 11.4131C12.8712 11.6263 12.5561 11.7569 12.2242 11.7881H10.7997C8.75222 11.7426 6.79178 10.9425 5.28708 9.53815C2.55676 7.01065 0.21224 2.18065 0.115789 1.97065C0.0237889 1.79521 -0.0147389 1.59616 0.00506792 1.3986C0.0248747 1.20105 0.102128 1.01386 0.227079 0.860649C0.509857 0.622256 0.867951 0.494496 1.23611 0.500649H4.26321H4.35224C4.6027 0.537588 4.84277 0.626997 5.05708 0.763149C5.25875 0.899848 5.42022 1.08899 5.5245 1.31065C5.8444 2.00295 6.2113 2.67204 6.62256 3.31315C7.5945 4.81315 8.02482 5.15815 8.18063 5.23315C8.35396 4.52985 8.40169 3.80091 8.3216 3.08065C8.3476 2.7526 8.29412 2.4231 8.16579 2.12065C8.00289 1.98893 7.80288 1.91278 7.5945 1.90315L7.05289 1.38565C6.94901 0.890649 7.49063 0.463149 7.86902 0.298149C8.62414 0.0589723 9.41638 -0.0376377 10.2061 0.013149H10.7329C11.2686 -0.000953053 11.8041 0.0494006 12.328 0.163149C13.5893 0.433149 13.5448 1.46065 13.4929 2.64565C13.4929 2.99065 13.4558 3.39565 13.4558 3.86065C13.4558 3.97315 13.4558 4.09315 13.4558 4.22065C13.4266 4.54717 13.4492 4.87631 13.5226 5.19565C14.1402 4.67331 14.6604 4.04337 15.0584 3.33565C15.4879 2.66645 15.865 1.96431 16.1861 1.23565C16.2839 1.00519 16.4516 0.812043 16.6649 0.684009C16.8782 0.555974 17.1262 0.499653 17.3732 0.523149H20.5487C20.6425 0.514104 20.7369 0.514104 20.8306 0.523149C21.5726 0.523149 22.0103 0.740649 22.1884 1.16065C22.3664 1.58065 22.3145 2.40565 20.4374 4.61815L19.6955 5.46565C19.336 5.81847 19.0264 6.21976 18.7755 6.65815C19.0565 6.98108 19.3754 7.2682 19.7251 7.51315C20.5778 8.16264 21.3283 8.93894 21.951 9.81565C22.097 9.98613 22.1925 10.1948 22.2266 10.4176C22.2608 10.6405 22.2321 10.8685 22.1439 11.0756C21.9884 11.3051 21.7803 11.4931 21.5375 11.6237C21.2946 11.7542 21.0241 11.8235 20.749 11.8256L17.9371 11.8631L17.7664 11.8331ZM13.8268 8.20315C14.4945 8.20315 15.0732 8.79565 15.689 9.41815C16.0217 9.78534 16.3951 10.1125 16.8019 10.3931C17.1096 10.6 17.4711 10.7096 17.8406 10.7081H17.9148L20.7342 10.6706C20.8732 10.6626 21.0094 10.6269 21.1348 10.5656L21.0606 10.4456C20.499 9.67196 19.8292 8.98479 19.0722 8.40565C18.1893 7.65565 17.7368 7.30315 17.6848 6.72565C17.6329 6.14815 18.0484 5.64565 18.8793 4.69315L19.6213 3.86065C20.2477 3.21479 20.7619 2.46681 21.1422 1.64815C20.9767 1.63823 20.8107 1.63823 20.6451 1.64815H17.4029C17.3443 1.6349 17.2835 1.6349 17.2248 1.64815C16.8814 2.44423 16.4719 3.20947 16.0006 3.93565C14.5984 6.05065 13.938 6.33565 13.4706 6.33565C13.3257 6.33565 13.183 6.29959 13.0551 6.23065C12.3132 5.80315 12.3132 4.85065 12.3577 4.16065C12.3577 4.04815 12.3577 3.93565 12.3577 3.83815C12.3577 3.35065 12.3577 2.93065 12.3948 2.57065C12.4542 1.31065 12.3948 1.30315 12.1129 1.23565C11.6586 1.14491 11.1958 1.10467 10.7329 1.11565H10.221C9.74988 1.10581 9.27872 1.13088 8.81127 1.19065C8.88206 1.24338 8.94459 1.30659 8.99676 1.37815C9.30278 1.8659 9.4554 2.43595 9.4345 3.01315C9.53095 4.25065 9.47902 5.86315 8.69256 6.25315C8.5533 6.31903 8.40115 6.35235 8.2474 6.35065C7.5574 6.35065 6.87482 5.69065 5.70998 3.90565C5.26298 3.22218 4.86383 2.50794 4.51547 1.76815L4.45611 1.69315C4.38118 1.65454 4.30126 1.62677 4.21869 1.61065H1.25095H1.19901C1.63676 2.52565 3.71418 6.57565 6.03643 8.69815C7.34044 9.90918 9.02993 10.6088 10.7997 10.6706H12.1722C12.2422 10.6555 12.3097 10.6303 12.3726 10.5956C12.3726 10.5956 12.3726 10.5956 12.3726 10.5281C12.3726 10.3256 12.3726 8.57815 13.5448 8.27815C13.6356 8.24202 13.7302 8.21685 13.8268 8.20315Z" fill="#192144"/>
</symbol><symbol id="level-25" viewBox="0 0 46 45">
<path d="M22.5841 1.5C25.3419 1.5 28.0726 2.04318 30.6205 3.09853C33.1683 4.15388 35.4833 5.70073 37.4333 7.65076C39.3834 9.60079 40.9302 11.9158 41.9856 14.4636C43.0409 17.0115 43.5841 19.7422 43.5841 22.5" stroke="#FF8D30" stroke-width="3" stroke-linecap="round"/>
</symbol><symbol id="level-50" viewBox="0 0 46 47">
<path d="M21.9282 1.60522C27.6304 1.60522 33.099 3.8704 37.131 7.90243C41.163 11.9345 43.4282 17.4031 43.4282 23.1052C43.4282 28.8074 41.1631 34.276 37.131 38.308C33.099 42.34 27.6304 44.6052 21.9282 44.6052" stroke="#FF8D30" stroke-width="3" stroke-linecap="round"/>
</symbol><symbol id="level-80-big" viewBox="0 0 100 100">
<path fill-rule="evenodd" clip-rule="evenodd" d="M5.76698 26.6667C2.08488 33.6324 0 41.5727 0 50C0 77.6142 22.3858 100 50 100C77.6142 100 100 77.6142 100 50C100 22.3858 77.6142 0 50 0V3C75.9574 3 97 24.0426 97 50C97 75.9574 75.9574 97 50 97C24.0426 97 3 75.9574 3 50C3 41.508 5.25217 33.5419 9.19181 26.6667H5.76698Z" fill="#FF8D30"/>
</symbol><symbol id="level-80-small" viewBox="0 0 60 60">
<path d="M4.74236 17.9148C2.16557 23.3002 1.37757 29.3683 2.4934 35.2332C3.60922 41.0982 6.57045 46.4529 10.9448 50.5159C15.3192 54.5788 20.8777 57.1372 26.8089 57.8176C32.7402 58.498 38.7336 57.2647 43.9144 54.2979C49.0952 51.3311 53.1921 46.786 55.607 41.3261C58.022 35.8662 58.6285 29.7773 57.3382 23.9483C56.0478 18.1193 52.9282 12.8553 48.4345 8.92466C43.9408 4.99408 38.3084 2.6027 32.3595 2.0996" stroke="#FF8D30" stroke-width="4" stroke-linecap="round"/>
</symbol><symbol id="level-80" viewBox="0 0 64 64">
<path d="M4.93242 19.0638C2.18934 24.8033 1.34174 31.2663 2.51205 37.5191C3.68236 43.7719 6.80999 49.4909 11.4432 53.8499C16.0764 58.2089 21.9752 60.9823 28.2877 61.7694C34.6002 62.5566 40.9995 61.3168 46.5613 58.2291C52.1231 55.1415 56.5594 50.3658 59.2295 44.5919C61.8995 38.8179 62.6651 32.3447 61.4156 26.1073C60.166 19.8698 56.9661 14.191 52.278 9.89114C47.5899 5.59126 41.6563 2.89292 35.3344 2.18588" stroke="#FF8D30" stroke-width="3" stroke-linecap="round"/>
</symbol><symbol id="level-99-small" viewBox="0 0 60 60">
<path d="M22.5503 3.00922C15.7757 4.87906 9.95203 9.22814 6.23551 15.1929C2.51899 21.1577 1.18146 28.302 2.48848 35.2073C3.7955 42.1126 7.65149 48.2739 13.2908 52.4678C18.9302 56.6618 25.9405 58.5817 32.9298 57.8463C39.9191 57.1109 46.3763 53.7741 51.0193 48.4983C55.6623 43.2226 58.1516 36.3937 57.9929 29.3676C57.8341 22.3415 55.039 15.632 50.1625 10.5713C45.2859 5.51057 38.6846 2.46876 31.6692 2.0498" stroke="#FF8D30" stroke-width="4" stroke-linecap="round"/>
</symbol><symbol id="level-99" viewBox="0 0 64 64">
<path d="M27.436 2.3492C19.7903 3.52607 12.8947 7.61087 8.18897 13.7508C3.48324 19.8906 1.33115 27.611 2.18203 35.2998C3.03291 42.9886 6.82098 50.0516 12.7553 55.014C18.6897 59.9764 26.3116 62.4546 34.0296 61.9313C41.7477 61.4079 48.9652 57.9234 54.1753 52.2053C59.3854 46.4872 62.1854 38.9775 61.9905 31.2442C61.7956 23.5109 58.621 16.1518 53.1295 10.7034C47.6379 5.25497 40.254 2.13844 32.5194 2.0045" stroke="#FF8D30" stroke-width="3" stroke-linecap="round"/>
</symbol><symbol id="likes-fill" viewBox="0 0 13 13">
<g clip-path="url(#clip0)">
<path d="M3.25536 1.47406C4.94813 1.47406 6.31919 2.82156 6.31919 4.48385C6.31919 2.82156 7.69025 1.47406 9.38302 1.47406C11.0758 1.47406 12.4469 2.82156 12.4469 4.48385C12.4469 6.98919 9.96974 7.87293 6.61945 11.8609C6.58256 11.9047 6.53658 11.9399 6.48472 11.9641C6.43286 11.9882 6.37637 12.0007 6.31919 12.0007C6.26201 12.0007 6.20552 11.9882 6.15366 11.9641C6.1018 11.9399 6.05582 11.9047 6.01893 11.8609C2.66864 7.87293 0.191528 6.98919 0.191528 4.48385C0.191528 2.82156 1.56259 1.47406 3.25536 1.47406Z" fill="#F02323"/>
</g>

</symbol><symbol id="likes-no-fill" viewBox="0 0 13 12">
<path fill-rule="evenodd" clip-rule="evenodd" d="M6.31919 4.6942L7.00396 3.25148C7.174 2.89423 7.46889 2.38052 7.88634 1.96521C8.29689 1.55634 8.78864 1.27812 9.38302 1.27812C10.6668 1.27812 11.6809 2.34746 11.6809 3.63293C11.6809 4.60953 11.2566 5.29903 10.2501 6.35063C9.99196 6.61998 9.69783 6.91111 9.3723 7.23207C8.52362 8.07077 7.46813 9.1143 6.31919 10.5094C5.17025 9.1143 4.11476 8.07077 3.26608 7.23207C2.94055 6.91111 2.64566 6.61917 2.38829 6.35063C1.38183 5.29903 0.957486 4.60953 0.957486 3.63293C0.957486 2.34746 1.97161 1.27812 3.25536 1.27812C3.84974 1.27812 4.34149 1.55634 4.75204 1.96521C5.16949 2.38052 5.46438 2.89423 5.63442 3.25148L6.31919 4.6942ZM6.61945 11.3812C6.58256 11.4272 6.53658 11.4642 6.48472 11.4895C6.43286 11.5149 6.37637 11.528 6.31919 11.528C6.26201 11.528 6.20552 11.5149 6.15366 11.4895C6.1018 11.4642 6.05582 11.4272 6.01893 11.3812C4.79264 9.84736 3.68276 8.7506 2.76898 7.84819C1.18727 6.2845 0.191528 5.30145 0.191528 3.63293C0.191528 1.88698 1.56259 0.47168 3.25536 0.47168C4.48089 0.47168 5.338 1.31844 5.86268 2.09101C6.06183 2.38536 6.21349 2.66842 6.31919 2.891C6.4517 2.61243 6.60431 2.34499 6.7757 2.09101C7.30038 1.31764 8.15749 0.47168 9.38302 0.47168C11.0758 0.47168 12.4469 1.88698 12.4469 3.63293C12.4469 5.30145 11.4511 6.2845 9.8694 7.84819C8.95562 8.7514 7.84574 9.84816 6.61945 11.3804V11.3812Z" fill="#192144"/>
</symbol><symbol id="logo-html" viewBox="0 0 27 34">
<g clip-path="url(#clip0)">
<path d="M13.6426 0.101368L13.5 0.0859375L0 1.46443V25.5657L13.5 33.3892L27 25.5657V1.46443L13.6426 0.101368ZM25.2344 24.5885L13.5 31.3883L1.76561 24.5885V14.7093L13.4507 21.4834L13.4701 22.711L5.45351 18.0646L5.44295 19.2648L13.4894 23.9747L13.5088 25.2348L5.46408 20.5747L5.45351 21.7749L13.5 26.4847L21.6239 21.7509V20.5507V16.6484L25.2432 14.543L25.2344 24.5885ZM25.2344 13.2622L22.0147 15.1036L20.5325 15.9609L13.4666 11.8597L13.456 13.0599L19.4957 16.5593L19.4429 16.5901L19.3126 16.6638L18.4536 17.1456L13.4666 14.2583L13.456 15.4585L17.3921 17.7389L16.4591 18.3355L16.438 18.3475L13.4666 16.6416L13.456 17.8417L15.4029 18.9528L13.4155 20.1152L1.7973 13.3839L13.4349 6.56862L25.2344 13.2622ZM25.2344 12.062L13.4401 5.28786L1.76561 12.0552V3.01438L13.5 1.8142L25.2344 3.01438V12.062Z" fill="#192144"/>
</g>

</symbol><symbol id="triangle-button" viewBox="0 0 11 12">
<path d="M10.0698 6.07495L0.157238 11.7041L0.157238 0.445786L10.0698 6.07495Z" fill="#1D2E5B"/>
</symbol></svg>